# xmcd
#
# Track frame offsets:
#	150
#	25022
#	49690
#	71725
#	102850
#	122892
#	141667
#	161625
#	181250
#	200700
#	224222
#
# Disc length: 3299 seconds
# Revision: 3
# Processed by: cddbd v1.5.2PL0 Copyright (c) Steve Scherf et al.
# Submitted via: dBpowerAMP V12.0
#
DISCID=af0ce10b
DTITLE=Maria Muldaur - Maria Muldaur's Music for Lovers
DYEAR=2000
DGENRE=Blues
TTITLE0=Fanning the Flames
TTITLE1=Think About You
TTITLE2=Latersville
TTITLE3=It Feels Like Rain
TTITLE4=Gee Baby, Ain't I Good to You
TTITLE5=We Can Let It Happen Tonight
TTITLE6=Soothe Me
TTITLE7=Talk Real Slow
TTITLE8=I Wanna Be Loved
TTITLE9=Someday When We're Both Alone
TTITLE10=Southland of the Heart
EXTD=
EXTT0=
EXTT1=
EXTT2=
EXTT3=
EXTT4=
EXTT5=
EXTT6=
EXTT7=
EXTT8=
EXTT9=
EXTT10=
PLAYORDER=
